<?xml version="1.0" encoding="UTF-8" standalone="no"?>
<!DOCTYPE svg PUBLIC "-//W3C//DTD SVG 1.1//EN"
 "http://www.w3.org/Graphics/SVG/1.1/DTD/svg11.dtd">
<!-- Generated by graphviz version 2.38.0 (20140413.2041)
 -->
<!-- Title: Countries01 Pages: 1 -->
<svg width="204pt" height="180pt"
 viewBox="0.00 0.00 203.60 179.60" xmlns="http://www.w3.org/2000/svg" xmlns:xlink="http://www.w3.org/1999/xlink">
<g id="graph0" class="graph" transform="scale(1 1) rotate(0) translate(28.8 150.8)">
<title>Countries01</title>
<polygon fill="white" stroke="none" points="-28.8,28.8 -28.8,-150.8 174.8,-150.8 174.8,28.8 -28.8,28.8"/>
<!-- m_Country -->
<g id="node1" class="node"><title>m_Country</title>
<path fill="none" stroke="black" d="M12,-0.5C12,-0.5 134,-0.5 134,-0.5 140,-0.5 146,-6.5 146,-12.5 146,-12.5 146,-109.5 146,-109.5 146,-115.5 140,-121.5 134,-121.5 134,-121.5 12,-121.5 12,-121.5 6,-121.5 0,-115.5 0,-109.5 0,-109.5 0,-12.5 0,-12.5 0,-6.5 6,-0.5 12,-0.5"/>
<text text-anchor="start" x="49.5" y="-108.7" font-family="Arial Bold" font-size="11.00">Country</text>
<polyline fill="none" stroke="black" points="0,-101.5 146,-101.5 "/>
<text text-anchor="start" x="7" y="-88" font-family="Arial" font-size="10.00">name </text>
<text text-anchor="start" x="35" y="-88" font-family="Arial Italic" font-size="10.00" fill="#999999">string</text>
<text text-anchor="start" x="7" y="-75" font-family="Arial" font-size="10.00">capital </text>
<text text-anchor="start" x="39" y="-75" font-family="Arial Italic" font-size="10.00" fill="#999999">string</text>
<text text-anchor="start" x="7" y="-62" font-family="Arial" font-size="10.00">area </text>
<text text-anchor="start" x="29" y="-62" font-family="Arial Italic" font-size="10.00" fill="#999999">integer</text>
<text text-anchor="start" x="7" y="-49" font-family="Arial" font-size="10.00">population </text>
<text text-anchor="start" x="55" y="-49" font-family="Arial Italic" font-size="10.00" fill="#999999">integer</text>
<text text-anchor="start" x="7" y="-36" font-family="Arial" font-size="10.00">vehicleRegistrationCode </text>
<text text-anchor="start" x="114" y="-36" font-family="Arial Italic" font-size="10.00" fill="#999999">string</text>
<text text-anchor="start" x="7" y="-23" font-family="Arial" font-size="10.00">iso3166code </text>
<text text-anchor="start" x="65" y="-23" font-family="Arial Italic" font-size="10.00" fill="#999999">string</text>
<text text-anchor="start" x="7" y="-10" font-family="Arial" font-size="10.00">callingCode </text>
<text text-anchor="start" x="61" y="-10" font-family="Arial Italic" font-size="10.00" fill="#999999">integer</text>
</g>
</g>
</svg>
