<?xml version="1.0" encoding="UTF-8" standalone="no"?>
<!DOCTYPE svg PUBLIC "-//W3C//DTD SVG 1.1//EN"
 "http://www.w3.org/Graphics/SVG/1.1/DTD/svg11.dtd">
<!-- Generated by graphviz version 2.38.0 (20140413.2041)
 -->
<!-- Title: Countries04 Pages: 1 -->
<svg width="202pt" height="273pt"
 viewBox="0.00 0.00 201.60 272.60" xmlns="http://www.w3.org/2000/svg" xmlns:xlink="http://www.w3.org/1999/xlink">
<g id="graph0" class="graph" transform="scale(1 1) rotate(0) translate(28.8 243.8)">
<title>Countries04</title>
<polygon fill="white" stroke="none" points="-28.8,28.8 -28.8,-243.8 172.8,-243.8 172.8,28.8 -28.8,28.8"/>
<!-- m_Country -->
<g id="node1" class="node"><title>m_Country</title>
<path fill="none" stroke="black" d="M12,-0.5C12,-0.5 132,-0.5 132,-0.5 138,-0.5 144,-6.5 144,-12.5 144,-12.5 144,-70.5 144,-70.5 144,-76.5 138,-82.5 132,-82.5 132,-82.5 12,-82.5 12,-82.5 6,-82.5 0,-76.5 0,-70.5 0,-70.5 0,-12.5 0,-12.5 0,-6.5 6,-0.5 12,-0.5"/>
<text text-anchor="start" x="48.5" y="-69.7" font-family="Arial Bold" font-size="11.00">Country</text>
<polyline fill="none" stroke="black" points="0,-62.5 144,-62.5 "/>
<text text-anchor="start" x="7" y="-49.5" font-family="Arial" font-size="10.00">name </text>
<text text-anchor="start" x="35" y="-49.5" font-family="Arial Italic" font-size="10.00" fill="#999999">string</text>
<text text-anchor="start" x="7" y="-36.5" font-family="Arial" font-size="10.00">capital </text>
<text text-anchor="start" x="39" y="-36.5" font-family="Arial Italic" font-size="10.00" fill="#999999">string</text>
<text text-anchor="start" x="7" y="-23.5" font-family="Arial" font-size="10.00">area </text>
<text text-anchor="start" x="29" y="-23.5" font-family="Arial Italic" font-size="10.00" fill="#999999">integer</text>
<text text-anchor="start" x="7" y="-10.5" font-family="Arial" font-size="10.00">population </text>
<text text-anchor="start" x="55" y="-10.5" font-family="Arial Italic" font-size="10.00" fill="#999999">integer</text>
</g>
<!-- m_Currency -->
<g id="node2" class="node"><title>m_Currency</title>
<path fill="none" stroke="black" d="M12,-119.5C12,-119.5 132,-119.5 132,-119.5 138,-119.5 144,-125.5 144,-131.5 144,-131.5 144,-202.5 144,-202.5 144,-208.5 138,-214.5 132,-214.5 132,-214.5 12,-214.5 12,-214.5 6,-214.5 0,-208.5 0,-202.5 0,-202.5 0,-131.5 0,-131.5 0,-125.5 6,-119.5 12,-119.5"/>
<text text-anchor="start" x="45.5" y="-201.7" font-family="Arial Bold" font-size="11.00">Currency</text>
<polyline fill="none" stroke="black" points="0,-194.5 144,-194.5 "/>
<text text-anchor="start" x="7" y="-181" font-family="Arial" font-size="10.00">name </text>
<text text-anchor="start" x="35" y="-181" font-family="Arial Italic" font-size="10.00" fill="#999999">string</text>
<text text-anchor="start" x="7" y="-168" font-family="Arial" font-size="10.00">symbol </text>
<text text-anchor="start" x="42" y="-168" font-family="Arial Italic" font-size="10.00" fill="#999999">string</text>
<text text-anchor="start" x="7" y="-155" font-family="Arial" font-size="10.00">iso4217code </text>
<text text-anchor="start" x="65" y="-155" font-family="Arial Italic" font-size="10.00" fill="#999999">string</text>
<text text-anchor="start" x="7" y="-142" font-family="Arial" font-size="10.00">iso4217number </text>
<text text-anchor="start" x="77" y="-142" font-family="Arial Italic" font-size="10.00" fill="#999999">integer</text>
<text text-anchor="start" x="7" y="-129" font-family="Arial" font-size="10.00">subunit </text>
<text text-anchor="start" x="42" y="-129" font-family="Arial Italic" font-size="10.00" fill="#999999">string</text>
</g>
<!-- m_Currency&#45;&gt;m_Country -->
<g id="edge1" class="edge"><title>m_Currency&#45;&gt;m_Country</title>
<path fill="none" stroke="black" d="M72,-119.31C72,-110.387 72,-101.018 72,-92.0107"/>
<polygon fill="black" stroke="black" points="75.1501,-91.7889 72,-82.789 68.8501,-91.789 75.1501,-91.7889"/>
</g>
</g>
</svg>
