<?xml version="1.0" encoding="UTF-8" standalone="no"?>
<!DOCTYPE svg PUBLIC "-//W3C//DTD SVG 1.1//EN"
 "http://www.w3.org/Graphics/SVG/1.1/DTD/svg11.dtd">
<!-- Generated by graphviz version 2.38.0 (20140413.2041)
 -->
<!-- Title: Books01 Pages: 1 -->
<svg width="375pt" height="214pt"
 viewBox="0.00 0.00 374.60 213.60" xmlns="http://www.w3.org/2000/svg" xmlns:xlink="http://www.w3.org/1999/xlink">
<g id="graph0" class="graph" transform="scale(1 1) rotate(0) translate(28.8 184.8)">
<title>Books01</title>
<polygon fill="white" stroke="none" points="-28.8,28.8 -28.8,-184.8 345.8,-184.8 345.8,28.8 -28.8,28.8"/>
<!-- m_Author -->
<g id="node1" class="node"><title>m_Author</title>
<path fill="none" stroke="black" d="M12,-86.5C12,-86.5 132,-86.5 132,-86.5 138,-86.5 144,-92.5 144,-98.5 144,-98.5 144,-130.5 144,-130.5 144,-136.5 138,-142.5 132,-142.5 132,-142.5 12,-142.5 12,-142.5 6,-142.5 0,-136.5 0,-130.5 0,-130.5 0,-98.5 0,-98.5 0,-92.5 6,-86.5 12,-86.5"/>
<text text-anchor="start" x="52" y="-129.7" font-family="Arial Bold" font-size="11.00">Author</text>
<polyline fill="none" stroke="black" points="0,-122.5 144,-122.5 "/>
<text text-anchor="start" x="7" y="-109.5" font-family="Arial" font-size="10.00">firstname </text>
<text text-anchor="start" x="50" y="-109.5" font-family="Arial Italic" font-size="10.00" fill="#999999">string</text>
<text text-anchor="start" x="7" y="-96.5" font-family="Arial" font-size="10.00">lastname </text>
<text text-anchor="start" x="50" y="-96.5" font-family="Arial Italic" font-size="10.00" fill="#999999">string</text>
</g>
<!-- m_Book -->
<g id="node2" class="node"><title>m_Book</title>
<path fill="none" stroke="black" d="M185,-73.5C185,-73.5 305,-73.5 305,-73.5 311,-73.5 317,-79.5 317,-85.5 317,-85.5 317,-143.5 317,-143.5 317,-149.5 311,-155.5 305,-155.5 305,-155.5 185,-155.5 185,-155.5 179,-155.5 173,-149.5 173,-143.5 173,-143.5 173,-85.5 173,-85.5 173,-79.5 179,-73.5 185,-73.5"/>
<text text-anchor="start" x="229" y="-142.7" font-family="Arial Bold" font-size="11.00">Book</text>
<polyline fill="none" stroke="black" points="173,-135.5 317,-135.5 "/>
<text text-anchor="start" x="180" y="-122.5" font-family="Arial" font-size="10.00">title </text>
<text text-anchor="start" x="199" y="-122.5" font-family="Arial Italic" font-size="10.00" fill="#999999">string</text>
<text text-anchor="start" x="180" y="-109.5" font-family="Arial" font-size="10.00">subtitle </text>
<text text-anchor="start" x="215" y="-109.5" font-family="Arial Italic" font-size="10.00" fill="#999999">string</text>
<text text-anchor="start" x="180" y="-96.5" font-family="Arial" font-size="10.00">year </text>
<text text-anchor="start" x="202" y="-96.5" font-family="Arial Italic" font-size="10.00" fill="#999999">integer</text>
<text text-anchor="start" x="180" y="-83.5" font-family="Arial" font-size="10.00">isbn </text>
<text text-anchor="start" x="202" y="-83.5" font-family="Arial Italic" font-size="10.00" fill="#999999">string</text>
</g>
<!-- m_Author&#45;&gt;m_Book -->
<g id="edge2" class="edge"><title>m_Author&#45;&gt;m_Book</title>
<path fill="none" stroke="black" stroke-dasharray="1,5" d="M144.309,-114.5C150.651,-114.5 156.993,-114.5 163.336,-114.5"/>
<polygon fill="black" stroke="black" points="163.628,-117.65 172.628,-114.5 163.628,-111.35 163.628,-117.65"/>
</g>
<!-- m_Publication -->
<g id="node3" class="node"><title>m_Publication</title>
<path fill="none" stroke="black" d="M98,-0.5C98,-0.5 218,-0.5 218,-0.5 224,-0.5 230,-6.5 230,-12.5 230,-12.5 230,-24.5 230,-24.5 230,-30.5 224,-36.5 218,-36.5 218,-36.5 98,-36.5 98,-36.5 92,-36.5 86,-30.5 86,-24.5 86,-24.5 86,-12.5 86,-12.5 86,-6.5 92,-0.5 98,-0.5"/>
<text text-anchor="start" x="126" y="-15.7" font-family="Arial Bold" font-size="11.00">Publication</text>
</g>
<!-- m_Author&#45;&gt;m_Publication -->
<g id="edge1" class="edge"><title>m_Author&#45;&gt;m_Publication</title>
<path fill="none" stroke="black" d="M96.8748,-86.3113C109.264,-72.7693 124.111,-56.5415 136.07,-43.4703"/>
<polygon fill="black" stroke="black" points="138.631,-45.337 142.382,-36.5704 133.983,-41.0843 138.631,-45.337"/>
</g>
<!-- m_Book&#45;&gt;m_Publication -->
<g id="edge3" class="edge"><title>m_Book&#45;&gt;m_Publication</title>
<path fill="none" stroke="black" d="M207.852,-73.3629C198.43,-63.1832 188.602,-52.5646 180.188,-43.4729"/>
<polygon fill="black" stroke="black" points="182.484,-41.3161 174.059,-36.8506 177.86,-45.5954 182.484,-41.3161"/>
</g>
</g>
</svg>
