<?xml version="1.0" encoding="UTF-8" standalone="no"?>
<!DOCTYPE svg PUBLIC "-//W3C//DTD SVG 1.1//EN"
 "http://www.w3.org/Graphics/SVG/1.1/DTD/svg11.dtd">
<!-- Generated by graphviz version 2.38.0 (20140413.2041)
 -->
<!-- Title: Countries03 Pages: 1 -->
<svg width="375pt" height="379pt"
 viewBox="0.00 0.00 374.60 378.60" xmlns="http://www.w3.org/2000/svg" xmlns:xlink="http://www.w3.org/1999/xlink">
<g id="graph0" class="graph" transform="scale(1 1) rotate(0) translate(28.8 349.8)">
<title>Countries03</title>
<polygon fill="white" stroke="none" points="-28.8,28.8 -28.8,-349.8 345.8,-349.8 345.8,28.8 -28.8,28.8"/>
<!-- m_City -->
<g id="node1" class="node"><title>m_City</title>
<path fill="none" stroke="black" d="M12,-100C12,-100 132,-100 132,-100 138,-100 144,-106 144,-112 144,-112 144,-144 144,-144 144,-150 138,-156 132,-156 132,-156 12,-156 12,-156 6,-156 0,-150 0,-144 0,-144 0,-112 0,-112 0,-106 6,-100 12,-100"/>
<text text-anchor="start" x="59.5" y="-143.2" font-family="Arial Bold" font-size="11.00">City</text>
<polyline fill="none" stroke="black" points="0,-136 144,-136 "/>
<text text-anchor="start" x="7" y="-123" font-family="Arial" font-size="10.00">name </text>
<text text-anchor="start" x="35" y="-123" font-family="Arial Italic" font-size="10.00" fill="#999999">string</text>
<text text-anchor="start" x="7" y="-110" font-family="Arial" font-size="10.00">population </text>
<text text-anchor="start" x="55" y="-110" font-family="Arial Italic" font-size="10.00" fill="#999999">integer</text>
</g>
<!-- m_Museum -->
<g id="node3" class="node"><title>m_Museum</title>
<path fill="none" stroke="black" d="M12,-0.5C12,-0.5 132,-0.5 132,-0.5 138,-0.5 144,-6.5 144,-12.5 144,-12.5 144,-44.5 144,-44.5 144,-50.5 138,-56.5 132,-56.5 132,-56.5 12,-56.5 12,-56.5 6,-56.5 0,-50.5 0,-44.5 0,-44.5 0,-12.5 0,-12.5 0,-6.5 6,-0.5 12,-0.5"/>
<text text-anchor="start" x="47" y="-43.7" font-family="Arial Bold" font-size="11.00">Museum</text>
<polyline fill="none" stroke="black" points="0,-36.5 144,-36.5 "/>
<text text-anchor="start" x="7" y="-23.5" font-family="Arial" font-size="10.00">name </text>
<text text-anchor="start" x="35" y="-23.5" font-family="Arial Italic" font-size="10.00" fill="#999999">string</text>
<text text-anchor="start" x="7" y="-10.5" font-family="Arial" font-size="10.00">established </text>
<text text-anchor="start" x="60" y="-10.5" font-family="Arial Italic" font-size="10.00" fill="#999999">integer</text>
</g>
<!-- m_City&#45;&gt;m_Museum -->
<g id="edge2" class="edge"><title>m_City&#45;&gt;m_Museum</title>
<path fill="none" stroke="black" d="M72,-99.8408C72,-89.2758 72,-77.0154 72,-65.7183"/>
<polygon fill="black" stroke="black" points="75.1501,-65.5135 72,-56.5135 68.8501,-65.5136 75.1501,-65.5135"/>
</g>
<!-- m_Country -->
<g id="node2" class="node"><title>m_Country</title>
<path fill="none" stroke="black" d="M97,-199.5C97,-199.5 219,-199.5 219,-199.5 225,-199.5 231,-205.5 231,-211.5 231,-211.5 231,-308.5 231,-308.5 231,-314.5 225,-320.5 219,-320.5 219,-320.5 97,-320.5 97,-320.5 91,-320.5 85,-314.5 85,-308.5 85,-308.5 85,-211.5 85,-211.5 85,-205.5 91,-199.5 97,-199.5"/>
<text text-anchor="start" x="134.5" y="-307.7" font-family="Arial Bold" font-size="11.00">Country</text>
<polyline fill="none" stroke="black" points="85,-300.5 231,-300.5 "/>
<text text-anchor="start" x="92" y="-287" font-family="Arial" font-size="10.00">name </text>
<text text-anchor="start" x="120" y="-287" font-family="Arial Italic" font-size="10.00" fill="#999999">string</text>
<text text-anchor="start" x="92" y="-274" font-family="Arial" font-size="10.00">capital </text>
<text text-anchor="start" x="124" y="-274" font-family="Arial Italic" font-size="10.00" fill="#999999">string</text>
<text text-anchor="start" x="92" y="-261" font-family="Arial" font-size="10.00">area </text>
<text text-anchor="start" x="114" y="-261" font-family="Arial Italic" font-size="10.00" fill="#999999">integer</text>
<text text-anchor="start" x="92" y="-248" font-family="Arial" font-size="10.00">population </text>
<text text-anchor="start" x="140" y="-248" font-family="Arial Italic" font-size="10.00" fill="#999999">integer</text>
<text text-anchor="start" x="92" y="-235" font-family="Arial" font-size="10.00">vehicleRegistrationCode </text>
<text text-anchor="start" x="199" y="-235" font-family="Arial Italic" font-size="10.00" fill="#999999">string</text>
<text text-anchor="start" x="92" y="-222" font-family="Arial" font-size="10.00">iso3166code </text>
<text text-anchor="start" x="150" y="-222" font-family="Arial Italic" font-size="10.00" fill="#999999">string</text>
<text text-anchor="start" x="92" y="-209" font-family="Arial" font-size="10.00">callingCode </text>
<text text-anchor="start" x="146" y="-209" font-family="Arial Italic" font-size="10.00" fill="#999999">integer</text>
</g>
<!-- m_Country&#45;&gt;m_City -->
<g id="edge1" class="edge"><title>m_Country&#45;&gt;m_City</title>
<path fill="none" stroke="black" d="M118.524,-199.327C110.494,-187.188 102.298,-174.8 95.0685,-163.871"/>
<polygon fill="black" stroke="black" points="97.5836,-161.964 89.9908,-156.195 92.3293,-165.44 97.5836,-161.964"/>
</g>
<!-- m_Person -->
<g id="node4" class="node"><title>m_Person</title>
<path fill="none" stroke="black" d="M185,-93.5C185,-93.5 305,-93.5 305,-93.5 311,-93.5 317,-99.5 317,-105.5 317,-105.5 317,-150.5 317,-150.5 317,-156.5 311,-162.5 305,-162.5 305,-162.5 185,-162.5 185,-162.5 179,-162.5 173,-156.5 173,-150.5 173,-150.5 173,-105.5 173,-105.5 173,-99.5 179,-93.5 185,-93.5"/>
<text text-anchor="start" x="223.5" y="-149.7" font-family="Arial Bold" font-size="11.00">Person</text>
<polyline fill="none" stroke="black" points="173,-142.5 317,-142.5 "/>
<text text-anchor="start" x="180" y="-129" font-family="Arial" font-size="10.00">firstname </text>
<text text-anchor="start" x="223" y="-129" font-family="Arial Italic" font-size="10.00" fill="#999999">string</text>
<text text-anchor="start" x="180" y="-116" font-family="Arial" font-size="10.00">lastname </text>
<text text-anchor="start" x="223" y="-116" font-family="Arial Italic" font-size="10.00" fill="#999999">string</text>
<text text-anchor="start" x="180" y="-103" font-family="Arial" font-size="10.00">yearOfBirth </text>
<text text-anchor="start" x="232" y="-103" font-family="Arial Italic" font-size="10.00" fill="#999999">integer</text>
</g>
<!-- m_Country&#45;&gt;m_Person -->
<g id="edge3" class="edge"><title>m_Country&#45;&gt;m_Person</title>
<path fill="none" stroke="black" d="M197.935,-199.327C204.496,-189.523 211.166,-179.557 217.342,-170.328"/>
<polygon fill="black" stroke="black" points="220.013,-172.001 222.401,-162.769 214.777,-168.497 220.013,-172.001"/>
</g>
</g>
</svg>
