<?xml version="1.0" encoding="UTF-8" standalone="no"?>
<!DOCTYPE svg PUBLIC "-//W3C//DTD SVG 1.1//EN"
 "http://www.w3.org/Graphics/SVG/1.1/DTD/svg11.dtd">
<!-- Generated by graphviz version 2.38.0 (20140413.2041)
 -->
<!-- Title: Countries01 Pages: 1 -->
<svg width="204pt" height="273pt"
 viewBox="0.00 0.00 203.60 272.60" xmlns="http://www.w3.org/2000/svg" xmlns:xlink="http://www.w3.org/1999/xlink">
<g id="graph0" class="graph" transform="scale(1 1) rotate(0) translate(28.8 243.8)">
<title>Countries01</title>
<polygon fill="white" stroke="none" points="-28.8,28.8 -28.8,-243.8 174.8,-243.8 174.8,28.8 -28.8,28.8"/>
<!-- m_City -->
<g id="node1" class="node"><title>m_City</title>
<path fill="none" stroke="black" d="M13,-0.5C13,-0.5 133,-0.5 133,-0.5 139,-0.5 145,-6.5 145,-12.5 145,-12.5 145,-44.5 145,-44.5 145,-50.5 139,-56.5 133,-56.5 133,-56.5 13,-56.5 13,-56.5 7,-56.5 1,-50.5 1,-44.5 1,-44.5 1,-12.5 1,-12.5 1,-6.5 7,-0.5 13,-0.5"/>
<text text-anchor="start" x="60.5" y="-43.7" font-family="Arial Bold" font-size="11.00">City</text>
<polyline fill="none" stroke="black" points="1,-36.5 145,-36.5 "/>
<text text-anchor="start" x="8" y="-23.5" font-family="Arial" font-size="10.00">name </text>
<text text-anchor="start" x="36" y="-23.5" font-family="Arial Italic" font-size="10.00" fill="#999999">string</text>
<text text-anchor="start" x="8" y="-10.5" font-family="Arial" font-size="10.00">population </text>
<text text-anchor="start" x="56" y="-10.5" font-family="Arial Italic" font-size="10.00" fill="#999999">integer</text>
</g>
<!-- m_Country -->
<g id="node2" class="node"><title>m_Country</title>
<path fill="none" stroke="black" d="M12,-93.5C12,-93.5 134,-93.5 134,-93.5 140,-93.5 146,-99.5 146,-105.5 146,-105.5 146,-202.5 146,-202.5 146,-208.5 140,-214.5 134,-214.5 134,-214.5 12,-214.5 12,-214.5 6,-214.5 0,-208.5 0,-202.5 0,-202.5 0,-105.5 0,-105.5 0,-99.5 6,-93.5 12,-93.5"/>
<text text-anchor="start" x="49.5" y="-201.7" font-family="Arial Bold" font-size="11.00">Country</text>
<polyline fill="none" stroke="black" points="0,-194.5 146,-194.5 "/>
<text text-anchor="start" x="7" y="-181" font-family="Arial" font-size="10.00">name </text>
<text text-anchor="start" x="35" y="-181" font-family="Arial Italic" font-size="10.00" fill="#999999">string</text>
<text text-anchor="start" x="7" y="-168" font-family="Arial" font-size="10.00">capital </text>
<text text-anchor="start" x="39" y="-168" font-family="Arial Italic" font-size="10.00" fill="#999999">string</text>
<text text-anchor="start" x="7" y="-155" font-family="Arial" font-size="10.00">area </text>
<text text-anchor="start" x="29" y="-155" font-family="Arial Italic" font-size="10.00" fill="#999999">integer</text>
<text text-anchor="start" x="7" y="-142" font-family="Arial" font-size="10.00">population </text>
<text text-anchor="start" x="55" y="-142" font-family="Arial Italic" font-size="10.00" fill="#999999">integer</text>
<text text-anchor="start" x="7" y="-129" font-family="Arial" font-size="10.00">vehicleRegistrationCode </text>
<text text-anchor="start" x="114" y="-129" font-family="Arial Italic" font-size="10.00" fill="#999999">string</text>
<text text-anchor="start" x="7" y="-116" font-family="Arial" font-size="10.00">iso3166code </text>
<text text-anchor="start" x="65" y="-116" font-family="Arial Italic" font-size="10.00" fill="#999999">string</text>
<text text-anchor="start" x="7" y="-103" font-family="Arial" font-size="10.00">callingCode </text>
<text text-anchor="start" x="61" y="-103" font-family="Arial Italic" font-size="10.00" fill="#999999">integer</text>
</g>
<!-- m_Country&#45;&gt;m_City -->
<g id="edge1" class="edge"><title>m_Country&#45;&gt;m_City</title>
<path fill="none" stroke="black" d="M73,-93.4205C73,-83.9985 73,-74.5091 73,-65.8311"/>
<polygon fill="black" stroke="black" points="76.1501,-65.7746 73,-56.7746 69.8501,-65.7747 76.1501,-65.7746"/>
</g>
</g>
</svg>
